# Made in Blockbench 5.0.7
mtllib Block01.mtl

o bottom
v -0.5 -0.5 0.5
v -0.5 -0.5 -0.5
v 0.5 -0.5 0.5
v 0.5 -0.5 -0.5
vt 1 0
vt 1 1
vt 0 1
vt 0 0
vn 0 -1 0
usemtl none
f 1/1/1 2/2/1 4/3/1 3/4/1
o right
v -0.5 -0.5 0.5
v -0.5 0.5 0.5
v -0.5 -0.5 -0.5
vt 1 0
vt 1 1
vt 0 0
vn -1 0 0
usemtl none
f 5/5/2 6/6/2 7/7/2
o left
v 0.5 -0.5 -0.5
v 0.5 -0.5 0.5
v 0.5 0.5 0.5
vt 1 0
vt 0 1
vt 0 0
vn 1 0 0
usemtl none
f 8/8/3 10/9/3 9/10/3
o back
v 0.5 -0.5 0.5
v 0.5 0.5 0.5
v -0.5 -0.5 0.5
v -0.5 0.5 0.5
vt 1 0
vt 1 1
vt 0 1
vt 0 0
vn 0 0 1
usemtl none
f 11/11/4 12/12/4 14/13/4 13/14/4
o plane
v -0.5 -0.5 -0.5
v -0.5 0.5 0.5
v 0.5 -0.5 -0.5
v 0.5 0.5 0.5
vt 1 0
vt 1 1
vt 0 1
vt 0 0
vn 0 0.7071067811865476 -0.7071067811865476
usemtl none
f 15/15/5 16/16/5 18/17/5 17/18/5